<svg width="457" height="252" fill="none" xmlns="http://www.w3.org/2000/svg"><path fill-rule="evenodd" clip-rule="evenodd" d="m12.989 115.227-.026.134-.03.143.03-.143-.037.167.063-.301Z" fill="#E3AE3D"/><path d="M55.723 160.432c-.333.926-1.049 2.375-1.886 4.069l-.086.174c-.877 1.778-1.885 3.825-2.75 5.866-.867 2.043-1.587 4.065-1.895 5.793-.31 1.745-.188 3.109.52 3.916.512.581.909.799 1.235.852.327.054.635-.047.997-.227.105-.052.216-.112.33-.175.646-.352 1.449-.79 2.538-.497.422.114.828.29 1.213.457l.23.1c.463.197.902.364 1.362.417.998.114 1.894-.297 2.7-.99.808-.693 1.503-1.651 2.082-2.574a150.198 150.198 0 0 0 8.336-15.173l.226.108-.226-.108c.231-.484.591-1.486 1.041-2.743l.034-.092c.44-1.23.958-2.677 1.51-4.073.565-1.428 1.17-2.812 1.767-3.855.298-.521.6-.967.901-1.292.294-.319.622-.56.975-.596l-21.154 10.643Zm0 0c.742-2.064 1.247-4.469 1.732-6.966l.222-1.153c.41-2.142.83-4.33 1.388-6.432 1.321-4.968 3.405-9.382 7.905-11.52.856-.407 1.767-.683 2.704-.94l.544-.147c.758-.205 1.529-.412 2.276-.68 2.031-.73 3.844-1.886 5.612-3.082l.765-.52c1.511-1.031 3.008-2.052 4.623-2.847m-27.77 34.287 27.77-34.287m0 0c.934-.461 1.913-.817 2.853-.636.898.173 1.643.813 2.375 1.498 6.011 5.633 12.593 13.24 14.804 21.309m-20.032-22.171 20.032 22.171m0 0c.799 2.91.905 6.065-.177 8.848m.177-8.848-.177 8.848m0 0c-1.082 2.783-3.47 5.118-6.367 5.683m6.367-5.683-6.367 5.683m0 0c-4.368.85-8.567-1.884-11.83-4.641-.343-.289-.897-.955-1.582-1.819-.216-.272-.443-.561-.678-.86a123.718 123.718 0 0 0-1.596-2.004c-.803-.982-1.627-1.928-2.373-2.618-.372-.345-.732-.633-1.067-.83-.328-.193-.665-.318-.98-.286l20.106 13.058Z" fill="#fff" stroke="#333" stroke-width=".5"/><path d="M60.042 162.725c-5.859 8.85-10.376 19.435-11.4 30.049-1.062 11.013 1.141 22.533-3.884 32.878M29.828 166.764l4.616 20.281c.797 3.505 1.599 7.06 1.456 10.65-.12 3.034-.913 5.997-1.435 8.987a51.144 51.144 0 0 0 2.518 26.692" stroke="#323232" stroke-width=".863" stroke-linecap="round"/><path d="M30.273 193.603a15.012 15.012 0 0 0-2.396-6.293c-.923-1.378-2.063-2.583-3.19-3.775l-.005-.004c-1.129-1.194-2.244-2.374-3.147-3.715-1.297-1.925-1.4-3.839-1.2-5.819.064-.631.157-1.259.252-1.897.055-.373.11-.749.161-1.13.137-1.028.233-2.079.17-3.154l-.2.011.2-.011c-.22-3.697-1.779-6.916-3.939-9.898-1.871-2.583-4.204-5.002-6.522-7.404l-1.06-1.101C4.072 143.856-.77 138.268.368 130.652c.441-2.955 2.035-5.65 4.036-7.906.836-.944 1.757-1.818 2.89-2.274 1.051-.424 2.225-.462 3.4-.432 5.09.126 10.23 1.415 14.405 4.297 4.877 3.365 9.123 9.593 11.773 16.448 2.65 6.855 3.688 14.298 2.189 20.08-1.803 6.962-1.125 12.916-.357 19.648.168 1.476.34 2.988.492 4.557.392 4.058.689 8.384-1.482 11.724-.738 1.135-1.983 2.093-3.244 2.395-.835.2-1.667.112-2.375-.382-.743-.521-1.135-1.319-1.372-2.25-.173-.679-.26-1.404-.345-2.127-.033-.277-.066-.554-.104-.827Z" fill="#fff" stroke="#333" stroke-width=".4"/><path d="M57.344 128.208v.001c.121.632.121 1.218-.115 1.784-.236.564-.696 1.084-1.446 1.607l-.114-.164.114.164c-.506.354-1.37.887-2.27 1.257-.45.185-.916.332-1.354.392-.436.06-.863.037-1.222-.138v-.001l.088-.179a1.614 1.614 0 0 1-.877-1.541l7.196-3.182Zm0 0c-.088-.457-.241-.948-.42-1.481l-.051-.154m.471 1.635-.471-1.635m0 0-.161.019m.161-.019-.161.019m0 0a9.351 9.351 0 0 0-5.976 3.197l5.976-3.197Zm20.376-50.248a14.436 14.436 0 0 0-.486-1.99v-.001c-.042-.13-.074-.193-.116-.223-.033-.022-.082-.031-.172.004a1.098 1.098 0 0 0-.288.188 18.168 18.168 0 0 1-6.078 3.393m7.14-1.371-7.202 1.181m7.202-1.181c.56 3.291-.105 6.427-1.288 9.501-.853 2.216-1.969 4.384-3.084 6.552-.436.846-.871 1.693-1.29 2.542-.618 1.247-1.255 2.492-1.893 3.74-2.678 5.234-5.386 10.524-6.737 16.297l.195.045 14.097-38.677Zm-7.14 1.371-.062-.19m.062.19-.062-.19m.062.19a1.984 1.984 0 0 1-.801.102c-.27-.03-.556-.155-.67-.475-.106-.306.031-.615.129-.817m1.28 1c-.439.144-1.066.186-1.22-.25-.076-.217.019-.454.12-.662m-.18-.088.18.088m-.18-.088.18.088m-.18-.088a9.06 9.06 0 0 1 3.03-3.508c.227-.155.462-.305.697-.454.475-.304.95-.606 1.363-.953.608-.511 1.031-1.079 1.074-1.807.143-2.458-1.663-4.033-4.028-4.938-2.36-.904-5.197-1.104-6.926-.846-11.635 1.728-17.669 11.789-22.769 21.417-.077.144-.116.238-.108.321a.323.323 0 0 0 .085.172c.056.067.13.128.214.197 2.147 1.757 3.455 4.493 3.475 7.267v.001c0 .286-.011.65-.209.947-.316.48-.967.574-1.452.411-.486-.163-.854-.533-1.157-.878-1-1.14-1.632-2.458-2.182-3.814-3.264 6.7-4.315 17.006-3.548 24.296l-.2.021.2-.021c.174 1.654.506 3.36.843 5.091.124.635.248 1.273.366 1.913.435 2.376.773 4.768.6 7.059-.21 2.789-.883 5.497-1.688 8.164-.344 1.139-.71 2.265-1.075 3.387-.492 1.516-.983 3.025-1.413 4.548-1.644 5.827-1.8 12.171-.651 18.103.42 2.17 1.577 4.274 3.474 5.321 1.901 1.047 4.577.714 5.8-1.018l.086-.123.142.049c2.659.907 5.904-.469 7.102-3.013.479-1.017.648-2.124.686-3.275.026-.792-.009-1.592-.044-2.395-.016-.37-.032-.741-.043-1.112l.2-.006c-.217-7.678 2.558-13.965 6.929-19.991l11.307-60.445m-2.2 14.181c.194-.926.136-1.559-.183-1.92-.33-.372-.857-.366-1.361-.238-.518.13-1.1.412-1.636.714-.52.292-1.012.612-1.381.852l-.041.027c-2.886 1.879-5.39 3.903-7.222 6.92-.252.416-.499.889-.634 1.377-.136.49-.163 1.01.039 1.507.362.886 1.354 1.347 2.258 1.349.905.003 1.753-.37 2.51-.771 3.73-1.976 6.757-5.564 7.651-9.817ZM47.66 120.526c.324-2.173.498-5.285-.048-7.877-.273-1.295-.73-2.478-1.453-3.346-.728-.876-1.723-1.425-3.042-1.452-.688-.014-1.238.554-1.437 1.146-.199.59-.133 1.224-.058 1.788a33.018 33.018 0 0 0 4.048 12.011c.056.099.126.216.217.317a.74.74 0 0 0 .374.236c.312.074.554-.092.712-.287.156-.194.261-.451.32-.669v-.001a18.22 18.22 0 0 0 .367-1.866Zm2.18-40.625.198.023-.198-.023-.007.07a5.86 5.86 0 0 0 .565 2.997c.41.857.988 1.545 1.573 1.903.293.179.601.284.898.269.305-.016.578-.156.785-.426.203-.264.338-.644.4-1.139.063-.496.055-1.122-.043-1.892-.075-.598-.302-2.123-.791-3.213-.24-.536-.57-1.025-1.026-1.2-.489-.186-1.023.017-1.584.617-.518.552-.691 1.322-.77 2.014Z" fill="#fff" stroke="#333" stroke-width=".4"/><path d="M36.246 230.958c2.011-3.719 4.046-7.495 5.017-11.613.671-2.835.822-5.763.969-8.671.102-2.024-.083-2.568.333-4.55 2.33-11.057 4.643-22.669 1.42-33.5-1.544-5.19-4.337-10.086-4.728-15.488-.535-7.393 3.485-14.261 7.363-20.575" stroke="#323232" stroke-width=".863" stroke-linecap="round"/><path fill-rule="evenodd" clip-rule="evenodd" d="M22.25 251.501c.087.404 32.27 0 32.27 0 .11-.347 1.635-18.515 1.996-19.952l2.205-16.596H17.586s3.887 32.936 4.664 36.548Z" fill="#333"/><path d="M304.48 86.143c2.191-5.04 2.875-8.686 4.055-14.053" stroke="#323232" stroke-width=".863" stroke-linecap="round"/><path d="M374.898 164.217v68.26" stroke="#2C2A27" stroke-width="4.602"/><path d="M346.117 231.801h56.425" stroke="#2C2A27" stroke-width="5.753"/><path d="M303.206 105.778c.24-4.124 1.95-8.336 5.333-10.607 3.289-2.208 7.938-2.175 11.197.078m-16.53 10.529-.249-.015.249.015Zm0 0c-.349 6.009 1.521 12.586 3.237 18.35a206.06 206.06 0 0 0 6.422 18.343l.4-.043c.373-.042.907-.105 1.553-.182 1.29-.156 3.02-.372 4.787-.595 3.202-.405 6.511-.836 7.546-.99-1.005-5.551-.961-11.582-.919-17.374.012-1.777.025-3.531.007-5.242-.006-.584-.009-1.161-.013-1.732-.025-4.25-.049-8.2-1.16-12.477-.874-3.361-2.522-6.644-5.33-8.587m0 0 .142-.206m-.142.206.142-.206m0 0c2.878 1.992 4.548 5.341 5.43 8.73l-16.908-8.81c3.374-2.264 8.135-2.231 11.478.08ZM313.656 187.938a273.243 273.243 0 0 0 14.008 3.563c-2.412 8.435-4.555 15.795-5.05 17.276v.001c-.808 2.426-1.534 6.279-2.319 10.45a443.246 443.246 0 0 1-.845 4.411c-.57 2.877-1.19 5.73-1.907 8.232-.699 2.441-1.484 4.529-2.39 5.979-2.358-.042-4.462-.488-6.577-.998-.312-.075-.624-.152-.937-.229-1.785-.438-3.607-.885-5.604-1.128-.003-2.015.309-7.106.707-13.588.137-2.218.283-4.598.43-7.074.584-9.838 1.178-21.166 1.198-29.701 2.606 1.012 4.359 1.479 6.586 2.071.815.217 1.693.451 2.7.735Z" fill="#F2F2F2" stroke="#333" stroke-width=".5"/><path d="m382.995 177.296.047.246-.047-.246a144.23 144.23 0 0 1-41.945 1.847c-9.554-.985-18.2-2.543-22.643-11.752-2.245-4.649-2.788-10.114-1.423-15.091 1.698-6.199 5.247-9.698 9.604-12.349 2.184-1.329 4.569-2.443 7.032-3.577l.386-.178c2.337-1.075 4.737-2.18 7.073-3.507 10.388-5.899 19.279-14.453 25.486-24.673 2.879-4.739 5.161-9.76 7.295-14.84a580.612 580.612 0 0 0 2.027-4.91c1.416-3.46 2.829-6.914 4.384-10.304l-.222-.102.222.102c2.128-4.642 4.567-8.146 7.683-10.915 3.117-2.77 6.923-4.816 11.802-6.522l-.083-.236.083.236c7.258-2.54 15.217-4.256 22.43-1.827 10.017 3.374 16.024 14.019 17.779 24.533l.247-.04-.247.04c2.731 16.347.862 36.382-4.27 52.193-4.882 15.035-17.217 31.103-32.489 36.437a143.333 143.333 0 0 1-20.211 5.435Z" fill="#E0E0E0" stroke="#333" stroke-width=".5"/><path fill-rule="evenodd" clip-rule="evenodd" d="M322.663 153.325c-5.572 1.284-11.288 1.873-16.939 2.707-2.974.438-9.057 2.13-11.865.05-3.549-2.63 2.265-4.167 4.896-5.637 4.529-2.533 9.126-4.948 13.692-7.412 4.218-2.278 9.636-7.132 13.939-2.436 2.768 3.02 3.085 7.838 3.399 11.711-2.413.085-4.75.469-7.122 1.017Z" fill="#000"/><path fill-rule="evenodd" clip-rule="evenodd" d="M412.776 133.234c-2.576-8.137-14.236-10.002-21.435-9.424-14.976 1.201-29.999 1.568-44.894 2.786-12.133.994-25.339 3.618-33.683 13.297-6.819 7.909-7.919 18.793-9.849 28.705a340.897 340.897 0 0 0-4.941 34.904c-.263 2.946-.26 6.432 2.105 8.206 1.527 1.145 3.586 1.184 5.493 1.177l11.754-.05c3.404-.014 7.245-.217 9.497-2.771 1.554-1.763 1.948-4.236 2.277-6.566.432-3.056 7.141-40.83 6.747-40.885a157.495 157.495 0 0 0 37.242 1.438c8.773-.704 17.699-2.22 25.351-6.567 7.399-4.201 17.316-14.835 14.336-24.25Z" fill="#4F4F4F"/><path d="M412.775 132.704h-.001c-6.422.09-12.872.174-19.157-1.036l-.047.245.047-.245c-5.478-1.054-10.93-2.582-16.214-4.281l-1.421-.453c-3.577-1.135-6.922-2.196-9.418-3.885-1.404-.951-2.527-2.093-3.265-3.549-.737-1.456-1.098-3.243-.95-5.497.08-1.253.169-2.542.26-3.858.338-4.876.702-10.131.725-15.361.029-6.644-.491-13.27-2.323-19.063-.187-.594-.405-1.01-.667-1.259a.935.935 0 0 0-.924-.249c-.301.078-.591.28-.86.512-.252.216-.509.478-.762.736l-.066.068c-.279.283-.553.558-.826.782-.276.225-.532.382-.77.447a.774.774 0 0 1-.66-.1c-.231-.148-.487-.443-.752-.973a.535.535 0 0 0-.248-.222 1.893 1.893 0 0 0-.332-.123 8.61 8.61 0 0 0-1.023-.203c-.841-.127-2.004-.242-3.376-.35-2.583-.202-5.925-.38-9.294-.56l-.632-.033c-3.583-.192-7.144-.386-9.815-.616-1.336-.115-2.443-.238-3.215-.372a5.789 5.789 0 0 1-.872-.204 1.216 1.216 0 0 1-.123-.05.866.866 0 0 1 .04-.05c.086-.1.222-.23.408-.391.371-.32.916-.738 1.598-1.234 1.147-.835 2.664-1.882 4.357-3.05l.972-.671c4.153-2.87 9.084-6.322 12.1-9.086 11.964-10.968 27.178-18.04 41.751-19.22 1.095-.09 2.431.115 3.792.394.488.1.981.21 1.466.318.849.19 1.672.373 2.39.485 2.72.427 5.229 1.632 7.629 2.95 10.929 6.004 13.6 15.14 16.595 25.382.491 1.677.99 3.384 1.535 5.112l.239-.075-.239.075c.969 3.066 2.211 6.05 3.449 9.02l.008.02c1.237 2.967 2.469 5.923 3.43 8.958 3.768 11.891-.588 23.337-4.913 34.701-.381 1.001-.762 2.001-1.137 3l-.297.804c-.151.41-.284.775-.415 1.104-.187.47-.36.85-.555 1.165-2.327-.026-4.658.006-6.98.037l-.242.004Zm-87.03-59.677.001-.002-.001.002Zm-.025-.12.002.002-.002-.003Z" fill="#fff" stroke="#333" stroke-width=".5"/><path fill-rule="evenodd" clip-rule="evenodd" d="M298.473 232.937c-1.449.81-3.617 1.294-5.168 1.761-4.013 1.21-8.171 1.893-12.129 3.289-2.076.733-4.057 3.329-1.8 5.169.984.802 2.312 1.005 3.573 1.15 10.041 1.161 20.194.596 30.285.03.549-.03 1.151-.084 1.542-.472.222-.22.344-.52.455-.812 1.228-3.216 2.072-6.81 2.846-10.097-1.354-.33-2.784.234-4.145.337-1.763.134-3.691.273-5.3-.614a25.617 25.617 0 0 1-5.906-4.485c-.161-.165-.328-.337-.542-.423-.703-.284-1.392.476-1.63 1.197-.463 1.403-.487 2.976-1.815 3.812a7.467 7.467 0 0 1-.266.158Z" fill="#000"/><path fill-rule="evenodd" clip-rule="evenodd" d="M326.917 114.787c.12-1.669-.008-3.216-1.565-3.802-2.148-.808-2.875.335-4.249-1.893-2.646-4.293-4.525-9.656-6.317-14.362-2.157-5.67-6.227-13.07-6.012-19.162.01-.316.037-.652.223-.908.215-.299.596-.42.952-.514 3.172-.83 6.507-.746 9.78-.535 21.577 1.388 33.625 24.794 43.832 40.822 1.539 2.417 10.505 14.052 12.86 13.866-8.247.652-14.598 4.832-22.224 7.137-4.683 1.414-9.833 5.592-14.213 6.192-1.416.194-7.194-10.43-8.037-11.821-2.209-3.647-5.326-7.804-5.259-12.226.014-.869.161-1.851.229-2.794Z" fill="#4F4F4F"/><path fill-rule="evenodd" clip-rule="evenodd" d="M301.194 116.819c.452 3.35.936 6.691 1.439 10.02.164 1.089.364 2.249 1.115 3.055 1.112 1.199 2.983 1.185 4.612 1.042a95.324 95.324 0 0 0 17.522-3.221c1.736-.491 3.559-1.096 4.708-2.488 1.012-1.228 1.335-2.872 1.548-4.45 1.539-11.394-2.101-22.528-1.944-33.976.081-6.116-2.189-9.805-5.295-14.795-2.98-4.786-7.171-6.412-12.548-4.588-9.056 3.073-14.236 12.673-13.811 21.797.429 9.205 1.419 18.437 2.654 27.604Z" fill="#4F4F4F"/><path d="M378.467 35.356c1.533-.603 2.804-1.554 3.903-2.79l.13-.146c.387-.435 1.043-1.17 1.62-1.935.324-.43.617-.862.824-1.25.212-.399.308-.708.292-.906a41.864 41.864 0 0 1-.123-2.58 72.46 72.46 0 0 1-.157-1.06c-.167-1.16-.331-2.297-.665-3.427-.523-1.774-1.25-3.482-2.04-5.165a20.725 20.725 0 0 0-1.088-1.555c-1.46-1.886-3.709-3.051-6.057-3.46-2.434-.422-4.208.193-6.479.982l-.528.182 10.368 23.11Zm0 0c-4.058 1.602-8.228 1.72-11.342-1.555-1.494-1.573-2.518-3.545-3.383-5.574m14.725 7.13-14.725-7.13m0 0c-.652-1.528-1.44-4.424-1.961-7.353m1.961 7.353-1.961-7.353m0 0c-.26-1.462-.452-2.925-.527-4.224m.527 4.224-.527-4.224m0 0c-.076-1.303-.032-2.42.167-3.2l-.167 3.2Zm.167-3.2c.177-.687.477-1.006.838-1.159.384-.162.885-.158 1.509-.083.22.027.459.063.71.1.426.065.884.135 1.337.17.735.057 1.515.033 2.284-.232l-6.678 1.204Z" fill="#F2F2F2" stroke="#333" stroke-width=".5"/><path d="M375.369 50.04c1.139-1.588 1.324-3.043.987-4.488-.317-1.359-1.097-2.705-1.923-4.13a109.83 109.83 0 0 1-.111-.192 11.848 11.848 0 0 0-.518-.734l-.122-.166c-.22-.298-.468-.635-.707-.97-.285-.4-.551-.79-.734-1.1a2.842 2.842 0 0 1-.196-.375.527.527 0 0 1-.023-.069.917.917 0 0 1 .139-.18c.179-.18.429-.29.734-.36.283-.065.589-.09.903-.117l.081-.006a13.127 13.127 0 0 0 6.866-2.622c.938-.71 1.768-1.525 2.547-2.36.128-.137.269-.344.412-.558l.108-.165c.115-.174.234-.355.359-.53a4.29 4.29 0 0 1 .494-.598c.146-.14.269-.216.367-.244a40.507 40.507 0 0 1 .704 2.264c.198.683.396 1.363.626 2.033.498 1.45 1.152 2.862 2.317 4.207.87 1.006 1.882 1.89 3.056 2.513a4.446 4.446 0 0 0 1.993.826c-1.268 2.305-3.072 4.351-5.297 6.008-2.027 1.508-4.593 2.599-7.167 2.982a4.214 4.214 0 0 1-.406.012 30.394 30.394 0 0 1-3.1-.178c-.785-.089-1.506-.215-1.974-.383-.24-.087-.372-.17-.425-.233-.011-.014-.015-.022-.017-.026l-.001-.004v-.003l.002-.009a.164.164 0 0 1 .026-.044Zm-3.353-12.252v.004-.004Z" fill="#F2F2F2" stroke="#333" stroke-width=".5"/><path fill-rule="evenodd" clip-rule="evenodd" d="M371.497 5.01c1.617.013 4.343-.18 5.751.76.598.398.946.96 1.624 1.312.73.381 1.531.633 2.147 1.203.884.819 1.224 2.14 2.207 2.837.33.233.718.384 1.018.655.985.896.684 2.743 1.789 3.485.68.458 1.603.273 2.381.536.756.256 1.322.936 1.566 1.697.245.76.195 1.59-.001 2.365-.288 1.137-.951 2.249-2.013 2.75-.208.098-.438.178-.593.349-.378.41-.138 1.057-.077 1.613.128 1.141-.683 2.26-1.749 2.69-1.065.429-2.307.248-3.33-.278-1.807-.93-2.724-2.378-2.971-4.359-.071-.58-.144-1.29-.679-1.53-.544-.243-1.13.198-1.712.328-1.48.331-2.842-1.226-4.14-1.698-1.481-.539-2.398-.218-3.847.404-1.913.82-3.766 2.031-5.919 2.037-1.046.004-2.133-.427-2.73-1.287-.492-.711-.6-1.615-.631-2.48-.065-1.733.416-3.53 1.374-4.988.624-.948 1.381-1.807 1.945-2.793.526-.92.881-1.944 1.525-2.787 1.473-1.924 4.395-2.828 6.714-2.822l.351.001Z" fill="#333"/><path fill-rule="evenodd" clip-rule="evenodd" d="M379.852 35.058c-.103.05-.224.095-.353.138-2.256.826-4.738 1.334-7.113 1.025-.595.226-.399.66-.099 1.445.421 1.099.799 2.21 1.135 3.334 2.191-2 4.385-4 6.578-6l-.148.058Z" fill="#131834"/><path d="M394.367 67.371c6.738 1.756 6.134 10.382 6.744 15.703.901 7.859 2.4 15.65 4.48 23.282M322.789 86.344c2.578 11.12 8.48 28.009 8.591 39.424" stroke="#131834" stroke-width=".575"/><path fill-rule="evenodd" clip-rule="evenodd" d="M370.913 29.096c-.404 1.047-1.29 1.812-2.257 1.949-.969.136-1.984-.36-2.586-1.264" fill="#333"/><path d="M438.553 123.726c-18.661-4.238-39.711-7.708-56.507.197-10.936 5.149-18.317 14.735-20.388 24.938-2.071 10.202.026 19.135 6.32 28.098" stroke="#000" stroke-width="3.452"/><mask id="a" style="mask-type:alpha" maskUnits="userSpaceOnUse" x="306" y="57" width="136" height="124"><path d="M399.675 60.29c-9.798 3.425-15.351 8.238-19.631 17.568-4.585 9.999-7.953 20.583-13.69 30.028-8.068 13.282-20.685 23.738-35.231 29.196-9.559 3.585-28.225 6.142-24.518 20.239 4.035 15.34 20.197 20.604 34.42 22.071a144.482 144.482 0 0 0 42.018-1.85 143.284 143.284 0 0 0 20.248-5.446c15.366-5.367 27.746-21.509 32.643-36.594 5.143-15.846 7.017-35.92 4.28-52.311-1.764-10.56-7.804-21.314-17.946-24.73-2.475-.833-5.033-1.184-7.617-1.184-5.037 0-10.172 1.331-14.976 3.012Z" fill="#333"/></mask><g mask="url(#a)"><path fill-rule="evenodd" clip-rule="evenodd" d="M333.561 182.324c2.925-.736 5.845-1.486 8.745-2.311 6.346-1.805 12.496-4.048 18.431-6.939 11.353-5.527 22.441-11.88 32.086-20.093 8.951-7.621 17.021-16.38 23.4-26.279 3.096-4.804 5.594-9.869 8.046-15.021 2.315-4.861 4.664-9.708 6.773-14.666 3.695-8.681 7.374-18.434 7.016-28.077.031-.098.06-.187.091-.294 6.589 20.046 8.466 41.969 2.98 62.344-5.486 20.374-18.787 38.993-37.477 48.772-13.068 6.836-28.02 9.154-42.738 10.086-7.342.465-26.266 2.687-29.695-6.374.502-.223 1.02-.488 1.548-.753.261-.133.528-.267.794-.395Z" fill="#333"/></g><path d="M335.43 165.025c.509-3.868.623-8.662 1.134-12.531M331.117 129.512c12.013-1.828 19.743-.226 35.21-.226M358.227 74.006c1.806-.947 7.088-1.834 8.004-3.658" stroke="#131834" stroke-width=".575"/><path fill-rule="evenodd" clip-rule="evenodd" d="M382.867 22.213a3.56 3.56 0 1 1-7.117 0 3.56 3.56 0 1 1 7.117 0Z" fill="#F2F2F2"/><path d="M393.352 102.465c-2.825.855-5.667 1.528-8.513 2.177l-1.34.305c-2.403.545-4.808 1.09-7.216 1.731-1.623.432-3.301.863-5.019.88-1.478.013-2.925-.279-4.343-.575l-.156-.033c-1.373-.288-2.72-.569-4.086-.599-3.774-.083-7.474 2.027-9.533 5.173-.436.667-.72 1.218-.882 1.671-.163.454-.197.795-.152 1.05.083.47.465.754 1.174.901.706.146 1.645.132 2.66.073.33-.019.668-.043 1.006-.067a36.683 36.683 0 0 1 2.001-.107l8.614-.126h.021l17.848-.259h.004c4.56 0 9.12-.089 13.682-.178 2.267-.044 4.534-.088 6.802-.121 1.19-.017 2.387-.05 3.586-.083 2.402-.066 4.816-.133 7.211-.074l-.006.25.006-.25c.398.01.794.029 1.189.048.918.043 1.828.086 2.723.017 1.265-.098 2.455-.421 3.497-1.276 1.106-.906 1.747-2.259 2.376-3.628l1.035-2.251.227.104c.4-.872.806-1.762.934-2.714l-35.35-2.039Zm0 0c.619-.187 1.237-.377 1.855-.567m-1.855.567 1.855-.567m0 0c2.931-.899 5.858-1.797 8.833-2.448l-8.833 2.448Zm8.833-2.448a43.631 43.631 0 0 1 4.731-.782l-4.731.782ZM377.24 13.655c-4.314-1.086-8.992-.774-13.268.234-1.136.267-2.307.616-3.405 1.113-.036-.877.145-1.77.329-2.674.052-.256.104-.513.152-.771 1.464-7.941 10.468-12.834 17.889-9.758 3.262 1.352 5.806 4.162 7.116 7.43.647 1.613.931 4.242.81 6.013a1.42 1.42 0 0 1-.009.097c-1.222.543-2.695.39-4.098.037-.923-.232-1.825-.54-2.738-.854l-.009-.003c-.907-.311-1.825-.626-2.769-.864Z" fill="#F2F2F2" stroke="#333" stroke-width=".5"/><path d="M367.155 12.992c3.855-.048 8.171.347 11.547 1.562-.977.412-1.962 1.008-2.906 1.646-.675.456-1.345.946-1.977 1.408-.432.316-.847.618-1.233.889-.361.253-.72.508-1.077.762-1.534 1.092-3.052 2.171-4.696 3.028-1.149.335-2.342.537-3.543.7-1.701.229-3.411.385-5.127.532-1.519.13-3.058.24-4.487-.178-.363-.106-.572-.248-.688-.392a.67.67 0 0 1-.136-.503c.038-.427.35-.968.801-1.535.549-.692 1.247-1.35 1.71-1.789.107-.1.202-.19.279-.265h.001a113.201 113.201 0 0 1 3.911-3.635c2.019-1.79 4.91-2.195 7.621-2.23Zm0 0-.003-.25.003.25Z" fill="#F2F2F2" stroke="#333" stroke-width=".5"/><path d="M171.965 157.711v69.122" stroke="#2C2A27" stroke-width="4.602"/><path d="M142.82 226.148h57.138" stroke="#2C2A27" stroke-width="5.753"/><path d="m117.884 123.939-.238.078.238-.079c-5.06-15.305-6.005-33.155-3.611-46.808 1.503-8.578 4.442-17.303 10.82-23.132h.001c6.445-5.891 15.206-7.638 23.278-4.198l.098-.23-.098.23c8.09 3.447 11.076 11.038 12.268 19.383a247.676 247.676 0 0 0 4.406 23.008c2.102 8.727 4.774 17.562 10.039 24.888 5.124 7.13 11.609 10.657 19.829 12.854 8.199 2.19 17.569 5.671 25.097 9.743 4.701 2.544 6.463 5.698 6.084 8.859-.383 3.193-2.96 6.5-7.196 9.306-4.302 2.849-9.426 4.213-14.547 5.14-18.399 3.332-37.711 1.456-55.125-5.359-7.524-2.944-14.829-6.907-20.121-12.959-4.901-5.605-8.61-12.82-11.222-20.724ZM274.128 177.501c.515-2.825-.304-4.396-1.519-6.725-.104-.201-.212-.407-.321-.62a186.772 186.772 0 0 0-3.786-6.986l.217-.123-.217.123c-2.584-4.531-5.352-8.976-8.501-13.129-.796-1.052-1.525-1.658-2.366-2.024-.849-.368-1.837-.501-3.176-.564-3.351-.158-5.717 1.629-6.902 3.972-1.191 2.356-1.175 5.246.219 7.27 2.94 4.275 6.337 8.228 9.765 12.134.717.817 1.464 1.768 2.238 2.753.522.665 1.057 1.347 1.604 2.013 1.369 1.668 2.83 3.269 4.429 4.418l-.146.203.146-.203c.874.628 1.784 1.118 2.739 1.412.926.283 1.941.3 2.759-.13l2.818-3.794Zm0 0c-.277 1.519-1.429 3.061-2.818 3.794l2.818-3.794Z" fill="#F2F2F2" stroke="#333" stroke-width=".5"/><path fill-rule="evenodd" clip-rule="evenodd" d="M296.315 164.397c-.831-4.279-4.639-1.234-6.701-.148a65.86 65.86 0 0 1-11.616 4.769c-1.767.533-3.629.998-5.447.672a17.463 17.463 0 0 1-4.496 5.655c-.535.442-4.943 2.853-4.71 3.675a17.021 17.021 0 0 0 3.718 6.731c.712.791 1.582 1.553 2.642 1.65.8.075 1.576-.244 2.302-.583 4.317-2.022 8.495-4.977 12.14-8.016 3.599-2.999 8.685-6.609 11.258-10.575.859-1.325 1.129-2.706.91-3.83Z" fill="#000"/><path fill-rule="evenodd" clip-rule="evenodd" d="M230.201 172.993c.258.53.519 1.048.777 1.552a210.286 210.286 0 0 0 41.775-16.168 393736.68 393736.68 0 0 1-19.145-32.868c-5.004-8.588-10.264-17.461-18.449-23.096-12.537-8.63-27.421-2.334-40.79.834-6.598 1.564-13.178 3.224-19.633 5.302-2.782.896-5.79 2.594-8.708 2.722-.778.033-7.678-1.177-7.23-2.503-.623 1.84-1.245 3.68-1.869 5.519-2.166 6.399-4.36 13.004-3.908 19.746.435 6.522 4.425 15.232 11.735 15.444 7.958.23 16.341 1.154 24.03-1.58 8.464-3.012 6.068-9.245 13.444-14.374 3.896-2.709 10.054-8.891 15.217-5.618 3.395 2.151 4.3 7.484 4.935 11 1.445 8.013 3.769 15.183 4.645 23.279 0 3.653 1.544 7.472 3.174 10.809Z" fill="#333"/><path d="M221.114 225.928c-1.173-1.862-2.012-4.132-2.727-6.429-.286-.921-.554-1.851-.815-2.759-.386-1.341-.758-2.633-1.156-3.776-1.905-5.475-3.757-10.988-5.003-16.639-.593-2.687.607-5.69 2.831-7.629 2.214-1.931 5.42-2.788 8.827-1.213 1.358.627 2.326 1.181 3.053 1.922.722.735 1.222 1.672 1.605 3.094 1.513 5.615 2.508 11.37 3.279 17.138.39 2.929.715 5.866.981 8.806.024.268.049.528.073.781.279 2.914.467 4.888-1.254 7.598l.211.134-.211-.134c-.928 1.461-2.774 2.576-4.525 2.751-1.034.102-2.084-.346-2.925-1.031-.866-.706-1.604-1.597-2.244-2.614Z" fill="#F2F2F2" stroke="#333" stroke-width=".5"/><path fill-rule="evenodd" clip-rule="evenodd" d="m203.167 155.858.008-4.007a22.8 22.8 0 0 1-.008 4.007Zm22.928-31.547c-2.362-10.023-18.228-4.54-23.286-.703-3.883 2.945-7.035 6.733-10.151 10.483-2.95 3.556-5.797 7.603-10.113 9.552-2.202.994-4.555 1.745-6.474 3.214-.531.406-1.069.967-1.017 1.637.076.969 1.251 1.382 2.211 1.544 4.068.694 7.638 1.528 11.841 1.303a63.514 63.514 0 0 1 6.338-.011c3.232.155 5.931 2.531 6.566 5.705l2.043 10.19c.818 4.088.793 8.121 1.631 12.25.554 2.719 5.575 27.13 7.901 27.092l31.766-.515-11.179-47.45-8.077-34.291Z" fill="#333"/><path fill-rule="evenodd" clip-rule="evenodd" d="M251.714 236.131c-.67-1.279-1.484-2.405-2.397-3.136-2.624-2.103-5.719-3.279-8.684-4.831-2.681-1.402-4.995-3.401-7.194-5.484-2.869.656-5.848.87-8.776.594-1.986-.189-4.007-.622-5.844-1.442a11.91 11.91 0 0 0-.944.231 64.62 64.62 0 0 0 1.006 6.388c.273 1.299.388 3.472 1.27 4.574.154.194.377.326.604.427a120.013 120.013 0 0 0 21.85 7.275c.419.097 2.658.484 5.009.892 3.096.537 5.556-2.701 4.1-5.488Z" fill="#000"/><path d="M177.008 148.392c14.807-4.937 22.793-26.815 40.297-25.491 11.005.831 12.023 9.337 13.642 17.985 1.857 9.898 3.71 19.799 5.563 29.698" stroke="#131834" stroke-width=".575"/><path d="M138.047 126.292c9.464-16.225 29.398-22.218 44.523-13.388 15.123 8.831 19.709 29.141 10.244 45.366" stroke="#000" stroke-width="3.452"/><path d="M135.327 112.401c-1.234-1.796-1.597-3.916-1.489-6.141.109-2.226.688-4.537 1.316-6.696 3.059-10.506 6.615-20.843 10.523-31.063 1.182-3.09 3.328-6.034 6.074-7.761 2.735-1.721 6.069-2.24 9.681-.49 2.317 1.122 3.638 3.272 4.293 5.826.655 2.556.635 5.49.286 8.122l.248.033-.248-.033c-1.196 9.029-4.232 17.72-7.684 26.176-2.055 5.028-4.433 10.17-8.794 13.253-2.168 1.531-4.982 2.312-7.628 2.16-2.645-.151-5.095-1.231-6.578-3.386Z" fill="#F2F2F2" stroke="#333" stroke-width=".5"/><path d="M158.421 46.847c-1.227.655-2.634 1.494-3.89 2.46-1.259.967-2.349 2.05-2.962 3.186-.784 1.457-1.476 3-2.153 4.562l-.456 1.059a111.855 111.855 0 0 1-1.596 3.6c-.285.604-1.629 3.542-2.767 6.422-.569 1.441-1.083 2.861-1.389 3.965-.153.553-.25 1.015-.278 1.356-.014.172-.009.3.008.387.015.077.035.098.036.1.891.637 1.778 1.281 2.666 1.926 5.155 3.745 10.316 7.494 16.192 9.748h.001a.283.283 0 0 1 .163.173c.015.042.02.085.022.115.005.063.001.14-.006.218-.015.16-.05.377-.097.627a42.832 42.832 0 0 1-.401 1.837 151.352 151.352 0 0 1-.698 2.817l-.042.162c-.47 1.875-.896 3.76-1.278 5.655-.53 2.63-.979 5.288-1.428 7.948a560.628 560.628 0 0 1-.587 3.439 774.73 774.73 0 0 0-1.057 6.214c.029.012.068.026.117.041.197.062.501.13.905.203.805.144 1.973.299 3.393.46 2.839.322 6.669.663 10.592.975 7.85.625 16.05 1.136 17.403 1.156 1.282.019 2.671.092 4.122.168 3.097.161 6.472.338 9.682.037 4.701-.44 8.937-1.9 11.293-5.863 1.125-1.891 1.691-4.064 2.2-6.249l.244.056-.244-.056c2.616-11.212 4.095-22.888 3.992-34.41-.082-9.169-3.187-18.128-10.399-24.096l.159-.192-.159.192a26.236 26.236 0 0 0-1.527-1.172c-2.661-1.892-5.637-3.301-8.637-4.657l-41.139 5.431Zm0 0c.194-.103.382-.202.566-.295h.001c2.532-1.298 5.261-1.99 8.052-2.563.684-.14 1.372-.275 2.063-.409 2.115-.41 4.246-.824 6.307-1.45m-16.989 4.717 16.989-4.717m-28.272 19.477c.552-1.171 1.071-2.38 1.591-3.59.825-1.918 1.652-3.843 2.62-5.642l-4.211 9.232Zm0 0c-.574 1.215-5.384 11.77-4.31 12.54l4.31-12.54ZM175.41 42.13c1.301-.396 2.54-.888 3.749-1.387l.706-.293c.967-.402 1.917-.798 2.879-1.145 2.385-.862 4.808-1.418 7.583-1.01M175.41 42.13l14.917-3.836m0 0c3.21.472 6.239 1.77 9.233 3.122l-9.233-3.122Z" fill="#fff" stroke="#333" stroke-width=".5"/><path d="M192.152 9.696c2.107-1.332 4.532-2.206 7.036-2.3.464-.018.918.012 1.375.043.167.01.334.022.502.031m-8.913 2.226c-2.215 1.4-4.706 3.954-5.776 6.377-1.168 2.644-1.25 6.4-1.316 9.46-.008.4-.016.787-.027 1.16-.017.61-.023 1.266-.029 1.953-.042 5.084-.099 11.83-5.045 13.851l.345.124m11.848-32.925.133.212m-.133-.212.133.212M180.304 42.62c-.111.05-.225.098-.341.144a37.12 37.12 0 0 0 19.303 1.566 7.722 7.722 0 0 1-.062-.243m-18.9-1.467a36.874 36.874 0 0 0 18.9 1.467m-18.9-1.467c2.689-1.222 3.899-3.84 4.453-6.73.457-2.378.479-4.998.498-7.259.005-.682.011-1.332.028-1.933l.028-1.166c.028-1.328.06-2.779.181-4.215.159-1.87.469-3.687 1.113-5.144 1.045-2.367 3.496-4.886 5.68-6.266m6.919 34.18.246-.046c-.366-1.518-.21-2.928.063-4.458m-.309 4.504c-.375-1.565-.211-3.014.063-4.548l.246.044m0 0c.155-.867.223-1.283.466-1.511.241-.226.654-.267 1.492-.381m-1.958 1.892-.246-.044.014-.081c.069-.387.124-.695.19-.933.07-.256.163-.47.332-.63.169-.161.385-.242.64-.299.218-.048.495-.086.834-.131l.16-.022m.034.248c2.509-.342 4.583-1.604 5.997-3.72m-5.997 3.72-.034-.248m.034.248-.034-.248m6.031-3.472c2.696-4.032 2.949-9.218 3.181-13.975.025-.495.049-.986.075-1.47.147-2.68.283-5.44-.598-7.975m-2.658 23.42-.207-.139.207.14Zm2.658-23.42c-.251-.719-.597-1.431-1.175-1.926m1.175 1.926-.236.082.236-.082Zm-1.175-1.926c-.61-.52-1.412-.745-2.198-.903a17.793 17.793 0 0 0-3.936-.345c-.241.006-.48.027-.718.048a7.24 7.24 0 0 1-1.034.044m7.886 1.156-.163.19.163-.19Zm-7.886-1.156-.013.25m.013-.25-.013.25m0 0c-.176-.01-.348-.021-.517-.033-.453-.03-.888-.06-1.337-.042-2.453.092-4.835.95-6.913 2.263m8.767-2.188-8.767 2.188m0 0 9.152 27.536" fill="#F2F2F2" stroke="#333" stroke-width=".5"/><path fill-rule="evenodd" clip-rule="evenodd" d="M184.018 10.245a14.61 14.61 0 0 1 1.01-.562c.446-.232.907-.489 1.185-.909.377-.572.335-1.31.459-1.984.906-4.925 5.974-2.026 8.777-3.312.819-.376 1.305-1.213 1.926-1.867 1.523-1.601 4.108-2.076 6.1-1.12.465.224.9.517 1.389.69 1.018.357 2.063-.068 3.026-.395.869-.295 1.823-.919 2.76-.75.652.119 1.231.49 1.729.925 1.63 1.428 2.513 3.658 2.332 5.818-.372 4.464-4.92 7.457-9.082 7.74-2.011.136-4.481-.743-6.256.565-1.625 1.197-1.515 3.341-2.507 4.942-.674 1.087-1.709 1.717-2.761 2.39-1.585 1.015-2.973 2.19-4.106 3.704-1.218 1.631-2.777 3.838-5.14 3.364-2.403-.483-2.052-2.518-2.068-4.438-.02-2.072-.734-4.114.398-6.045.191-.325.417-.632.548-.984.737-1.987-1.826-4.035-1.222-6.068.224-.75.821-1.275 1.503-1.704Z" fill="#030303"/><path fill-rule="evenodd" clip-rule="evenodd" d="M189.622 20.662c-.685.836-1.059 1.966-.922 3.087.218 1.777 1.736 3.28 3.411 3.54a3.907 3.907 0 0 0 3.33-1.089c1.432-1.429 1.841-4.707.181-6.259-.499-.466-1.161-.685-1.81-.776-1.302-.18-2.666.13-3.671.97a3.993 3.993 0 0 0-.519.527Z" fill="#F2F2F2"/><path fill-rule="evenodd" clip-rule="evenodd" d="M169.526 87.213c.549-3.983.938-7.985 1.14-12.006-.005.01-.013.023-.015.03-.272.596-.542 1.192-.813 1.789a339.125 339.125 0 0 1-1.682 3.675c-.979 2.093-1.954 4.245-3.117 6.242 1.493.185 2.99.278 4.487.27Z" fill="#000"/><path d="M187.198 109.855c-.985-.081-2.1-.539-3.165-1.047-.38-.181-.753-.368-1.115-.549-.671-.336-1.303-.653-1.872-.879-.961-.38-1.935-.771-2.921-1.167-5.189-2.082-10.709-4.297-16.328-5.789-6.684-1.776-13.481-2.52-19.988-.81-3.276.863-5.864 2.653-7.078 4.959-1.204 2.287-1.083 5.134 1.159 8.194 1.228 1.676 2.832 2.362 4.645 2.637 1.286.195 2.651.182 4.057.168.602-.005 1.21-.011 1.823-.001l40.783-5.716Zm0 0c1.144.094 2.454-.16 3.731-.462.308-.072.613-.147.914-.222.969-.238 1.899-.467 2.736-.569 1.277-.156 2.543-.274 3.785-.118 2.349.295 4.506 1.571 6.266 3.211 1.677 1.565 3.027 3.445 4.363 5.349m-21.795-7.189 21.795 7.189m0 0c-8.492 2.402-18.189 1.265-27.056.206l27.056-.206ZM250.915 49.717l-.001.003c-.202.528-.568.967-.977 1.336-.409.37-.873.682-1.283.95-.246.16-.504.303-.752.44l-.05.028c-.266.148-.522.291-.759.453h-.001c-.119.082-.242.17-.367.259-.22.158-.447.32-.68.462l-.337.205-.041-.393a13.07 13.07 0 0 0-.091-.688l-.026-.159.131-.087.004-.003.005-.004.006-.005.01-.008.008-.006.011-.008c.405-.27.836-.5 1.256-.725l.013-.007c.419-.224.828-.442 1.213-.695l.137.208-.137-.209c.435-.285.86-.586 1.272-.903a7.14 7.14 0 0 1 .304-.216l.019-.014c.102-.07.205-.14.305-.213.219-.16.389-.31.475-.448l.333.447Zm0 0a.975.975 0 0 1 .092-.183l-.212-.132m.12.315-.12-.315m0 0-.212-.133.212.133Zm2.223-4.002-.005-.004-.01-.01c-.462-.428-1.125-.333-1.48.19l-.014.022a.291.291 0 0 1-.018.032c-.778 1.23-2.178 2.3-3.277 3.126l4.804-3.356Zm0 0 .005.004c.316.294.323.723.114 1.12a1.49 1.49 0 0 1-.14.219 19.686 19.686 0 0 1-1.88 2.035l.279.407a1.132 1.132 0 0 1 1.07.072c.144.094.248.219.298.364.05.143.055.325-.031.55-.51 1.337-1.474 2.112-2.589 2.786-.319.192-.634.368-.954.546-.255.142-.514.286-.781.442-.582.341-1.158.717-1.672 1.185-2.488 2.275-5.194 4.275-8.141 5.911-.118.066-.236.128-.352.19-.714.38-1.378.733-1.831 1.637-.366.728-.519 1.535-.661 2.29l-.001.004a6050.71 6050.71 0 0 1-1.652 8.766c-.404 2.136-.994 4.23-1.65 6.312-.673 2.136-.96 4.215-1.243 6.267l-.033.237c-.295 2.134-.602 4.242-1.343 6.398-1.086 3.164-2.373 6.291-4.468 8.846-2.095 2.553-5.11 4.479-8.364 4.602-1.368.052-2.759-.229-3.862-.985-1.706-1.168-2.531-3.359-2.557-5.487-.026-2.13.633-4.21 1.323-6.28a295.645 295.645 0 0 1 9.782-25.362v-.001c.182-.415.368-.832.556-1.251.801-1.794 1.619-3.625 2.213-5.502.198-.626.331-1.265.46-1.89l.007-.031c.132-.64.263-1.264.459-1.871.816-2.533 2.557-4.704 4.609-6.448 2.362-2.005 4.949-4.32 6.02-7.422.195-.564.736-.737 1.215-.606a.936.936 0 0 1 .548.379c.108.17.153.4.052.695a15.54 15.54 0 0 1-2.177 4.182l.316.37c.481-.248.976-.482 1.484-.7.175-.076.416-.232.693-.432.282-.203.618-.465.987-.765.74-.6 1.623-1.362 2.496-2.133a167.498 167.498 0 0 0 3.931-3.581l.016-.016.013-.017c.273-.376.579-.545.853-.593.278-.048.547.023.754.167a.845.845 0 0 1 .37.57c.026.208-.041.456-.302.702l-2.332 2.192-.025.023a2439.5 2439.5 0 0 1-2.307 2.168.72.72 0 0 0 .13 1.148l.115.067c.186.108.381.221.546.32.1.06.187.114.252.157.053.035.079.054.089.062l.005.003.16.172.182-.15a382.59 382.59 0 0 0 7.339-6.218c.451-.392 1.01-.274 1.361.077.175.173.279.389.289.598.009.2-.066.42-.301.625a364.663 364.663 0 0 1-4.148 3.555 325.29 325.29 0 0 1-2.124 1.78l6.53-3.461Zm-42.689 54.721c.026 2.178.87 4.461 2.666 5.691l-1.33-12.054c-.689 2.066-1.363 4.186-1.336 6.363Z" fill="#F2F2F2" stroke="#333" stroke-width=".5"/><path fill-rule="evenodd" clip-rule="evenodd" d="M214.558 86.272c-1.314-5.242-2.65-10.486-4.395-15.603-.366-1.071-.829-2.096-1.288-3.126-.292.885-.368 1.84-.425 2.776-.308 5.176-.618 10.35-.927 15.527.505.337.941.022 1.459-.004.694-.033 1.483.176 2.172.264 1.182.153 2.405.52 3.434.289l-.03-.123ZM200.11 38.139c.02-.06.034-.126.055-.183-1.75-.212-3.614-.678-5.048-1.632.008.018.015.036.024.052l.07.132a11.914 11.914 0 0 0 1.04 1.524c.585.736 2.735 3.025 3.031 3.266.028-.404.18-2.2.828-3.16Z" fill="#000"/><path d="M240.336 49.512a11.896 11.896 0 0 1 3.653 5.31M235.749 48.832c-.114 1.017-.229 2.044-.563 3.013-.334.968-.91 1.885-1.768 2.441M199.871 29.557c.376 1.006 1.369 1.683 2.41 1.95 1.041.265 2.136.185 3.206.082M192.841 20.627c-.892.212-1.735.76-2.144 1.58-.408.822-.293 1.92.388 2.534M158.944 99.463a35.365 35.365 0 0 0-10.135 2.577" stroke="#000" stroke-width=".575"/><path fill-rule="evenodd" clip-rule="evenodd" d="M202.421 161.251c-2.995-1.063-5.908-2.378-8.722-3.816-5.277-2.698-10.302-5.875-15.173-9.244-4.39-3.034-8.631-6.264-12.879-9.491a80.474 80.474 0 0 1-12.085-11.323c-7.003-8.067-12.264-17.52-15.942-27.529-3.692-10.047-5.839-20.622-7.011-31.246-.663-5.998-1.006-12.023-1.131-18.055a23.831 23.831 0 0 0-4.557 3.266c-6.44 5.886-9.392 14.679-10.899 23.274-2.4 13.693-1.452 31.585 3.621 46.93 2.62 7.926 6.342 15.174 11.271 20.811 5.33 6.093 12.678 10.076 20.218 13.027 16.836 6.588 35.441 8.557 53.289 5.694v-2.298Z" fill="#333"/><path d="m456.148 244.762-18.501-126.601c-.035-.415-.668-.437-.735-.024l-20.17 126.625M141.621 244.762l-17.65-126.601c-.032-.415-.636-.437-.699-.024l-19.241 126.625" stroke="#000" stroke-width="1.151"/><path fill-rule="evenodd" clip-rule="evenodd" d="M114.154 119.788h332.045a2.81 2.81 0 1 0 0-5.62H114.154a2.81 2.81 0 1 0 0 5.62Z" fill="#fff" stroke="#000" stroke-width=".3"/><path fill-rule="evenodd" clip-rule="evenodd" d="M307.979 114.172h76.219c.968 0 1.753-.786 1.753-1.753v-.118c0-.968-.785-1.754-1.753-1.754h-76.219c-.968 0-1.752.786-1.752 1.754v.118c0 .967.784 1.753 1.752 1.753Z" fill="#fff"/><path fill-rule="evenodd" clip-rule="evenodd" d="M305.979 114.172h68.129l-5.928-39.165c-.206-1.36-1.359-2.374-2.7-2.374h-62.729c-1.62 0-2.837 1.46-2.59 3.103l5.818 38.436Z" fill="#2CE2A2" stroke="#0E101A" stroke-width=".3"/><path d="m331.15 92.2-2.955 2.458M335.034 92.2l-2.956 2.458M338.915 92.2l-2.954 2.458" stroke="#131834" stroke-width=".575"/><path fill-rule="evenodd" clip-rule="evenodd" d="M256.187 114.262h-64.464l5.609-37.058c.195-1.286 1.287-2.247 2.556-2.247h59.353c1.532 0 2.686 1.383 2.45 2.937l-5.504 36.368Z" fill="#2CE2A2" stroke="#000" stroke-width=".3"/><path fill-rule="evenodd" clip-rule="evenodd" d="M232.921 91.965a3.087 3.087 0 1 1-6.171 0 3.086 3.086 0 1 1 6.171 0Z" fill="#fff"/></svg>